<svg xmlns="http://www.w3.org/2000/svg" xmlns:xlink="http://www.w3.org/1999/xlink" width="800.841" height="800.728" viewBox="0 0 1566.841 1197.728">
  <defs>
    <filter id="Tracé_18" x="51.159" y="210.731" width="1485.326" height="986.996" filterUnits="userSpaceOnUse">
      <feOffset dy="3" input="SourceAlpha"/>
      <feGaussianBlur stdDeviation="20" result="blur"/>
      <feFlood flood-opacity="0.522"/>
      <feComposite operator="in" in2="blur"/>
      <feComposite in="SourceGraphic"/>
    </filter>
    <filter id="Tracé_20" x="153.515" y="87" width="1413.326" height="856.482" filterUnits="userSpaceOnUse">
      <feOffset dy="3" input="SourceAlpha"/>
      <feGaussianBlur stdDeviation="8" result="blur-2"/>
      <feFlood flood-opacity="0.341"/>
      <feComposite operator="in" in2="blur-2"/>
      <feComposite in="SourceGraphic"/>
    </filter>
    <filter id="Tracé_19" x="0" y="0" width="356" height="356" filterUnits="userSpaceOnUse">
      <feOffset dy="3" input="SourceAlpha"/>
      <feGaussianBlur stdDeviation="15" result="blur-3"/>
      <feFlood flood-opacity="0.31"/>
      <feComposite operator="in" in2="blur-3"/>
      <feComposite in="SourceGraphic"/>
    </filter>
  </defs>
  <g id="Groupe_15" data-name="Groupe 15" transform="translate(-132.793 -6713)">
    <g transform="matrix(1, 0, 0, 1, 132.79, 6713)" filter="url(#Tracé_18)">
      <path id="Tracé_18-2" data-name="Tracé 18" d="M52.039,0H1313.287c28.74,0,52.039,20.653,52.039,46.129v624.41c0,25.476-23.3,46.129-52.039,46.129H162.354C133.614,716.668,0,889.915,0,864.438V46.129C0,20.653,23.3,0,52.039,0Z" transform="translate(111.16 267.73)" fill="#47627a"/>
    </g>
    <g transform="matrix(1, 0, 0, 1, 132.79, 6713)" filter="url(#Tracé_20)">
      <path id="Tracé_20-2" data-name="Tracé 20" d="M36,0H1329.326a36,36,0,0,1,36,36V772.482a36,36,0,0,1-36,36H36a36,36,0,0,1-36-36V36A36,36,0,0,1,36,0Z" transform="translate(177.51 108)" fill="#5498d7"/>
    </g>
    <g transform="matrix(1, 0, 0, 1, 132.79, 6713)" filter="url(#Tracé_19)">
      <path id="Tracé_19-2" data-name="Tracé 19" d="M133,0A133,133,0,1,1,0,133,133,133,0,0,1,133,0Z" transform="translate(45 42)" fill="#9152f7"/>
    </g>
    <g id="right-quotation-mark" transform="translate(302.079 6917.723) rotate(180)">
      <g id="Groupe_14" data-name="Groupe 14" transform="translate(0 0)">
        <path id="Tracé_1" data-name="Tracé 1" d="M33.839,0H11.28a10.88,10.88,0,0,0-7.99,3.29A10.879,10.879,0,0,0,0,11.28V33.838a10.874,10.874,0,0,0,3.289,7.989,10.882,10.882,0,0,0,7.99,3.29H24.439a5.616,5.616,0,0,1,5.64,5.64v1.879a14.49,14.49,0,0,1-4.406,10.633,14.492,14.492,0,0,1-10.633,4.405H11.28A3.616,3.616,0,0,0,8.635,68.79a3.613,3.613,0,0,0-1.116,2.643v7.52A3.616,3.616,0,0,0,8.635,81.6a3.618,3.618,0,0,0,2.644,1.117h3.76A29.31,29.31,0,0,0,26.7,80.335,30.3,30.3,0,0,0,36.306,73.9a30.312,30.312,0,0,0,6.432-9.6,29.3,29.3,0,0,0,2.379-11.661V11.279a10.877,10.877,0,0,0-3.29-7.989A10.878,10.878,0,0,0,33.839,0Z" fill="#fff"/>
        <path id="Tracé_2" data-name="Tracé 2" d="M41.826,3.29A10.877,10.877,0,0,0,33.837,0H11.278A10.877,10.877,0,0,0,3.289,3.29,10.879,10.879,0,0,0,0,11.28V33.838a10.876,10.876,0,0,0,3.289,7.989,10.878,10.878,0,0,0,7.989,3.29H24.438a5.616,5.616,0,0,1,5.64,5.64v1.879a14.489,14.489,0,0,1-4.407,10.633,14.489,14.489,0,0,1-10.633,4.405h-3.76A3.615,3.615,0,0,0,8.635,68.79a3.612,3.612,0,0,0-1.117,2.643v7.52A3.616,3.616,0,0,0,8.635,81.6a3.615,3.615,0,0,0,2.643,1.117h3.76A29.312,29.312,0,0,0,26.7,80.335,29.8,29.8,0,0,0,42.737,64.3a29.3,29.3,0,0,0,2.379-11.661V11.279A10.874,10.874,0,0,0,41.826,3.29Z" transform="translate(52.638)" fill="#fff"/>
      </g>
    </g>
    <g id="right-quotation-mark-2" data-name="right-quotation-mark" transform="translate(325.982 6858.277)">
      <g id="Groupe_14-2" data-name="Groupe 14" transform="translate(0 -0.001)">
        <path id="Tracé_1-2" data-name="Tracé 1" d="M33.839,0H11.28a10.88,10.88,0,0,0-7.99,3.29A10.879,10.879,0,0,0,0,11.28V33.838a10.874,10.874,0,0,0,3.289,7.989,10.882,10.882,0,0,0,7.99,3.29H24.439a5.616,5.616,0,0,1,5.64,5.64v1.879a14.49,14.49,0,0,1-4.406,10.633,14.492,14.492,0,0,1-10.633,4.405H11.28A3.617,3.617,0,0,0,8.635,68.79a3.613,3.613,0,0,0-1.116,2.643v7.52A3.616,3.616,0,0,0,8.635,81.6a3.618,3.618,0,0,0,2.644,1.117h3.76A29.31,29.31,0,0,0,26.7,80.335,30.3,30.3,0,0,0,36.306,73.9a30.312,30.312,0,0,0,6.432-9.6,29.3,29.3,0,0,0,2.379-11.661V11.279a10.877,10.877,0,0,0-3.29-7.989A10.878,10.878,0,0,0,33.839,0Z" transform="translate(0)" fill="#fff"/>
        <path id="Tracé_2-2" data-name="Tracé 2" d="M41.826,3.29A10.877,10.877,0,0,0,33.837,0H11.278A10.877,10.877,0,0,0,3.289,3.29,10.879,10.879,0,0,0,0,11.28V33.838a10.876,10.876,0,0,0,3.289,7.989,10.878,10.878,0,0,0,7.989,3.29H24.438a5.616,5.616,0,0,1,5.64,5.64v1.879a14.489,14.489,0,0,1-4.407,10.633,14.489,14.489,0,0,1-10.633,4.405h-3.76A3.615,3.615,0,0,0,8.635,68.79a3.612,3.612,0,0,0-1.117,2.643v7.52A3.616,3.616,0,0,0,8.635,81.6a3.615,3.615,0,0,0,2.643,1.117h3.76A29.312,29.312,0,0,0,26.7,80.335,29.8,29.8,0,0,0,42.737,64.3a29.3,29.3,0,0,0,2.379-11.661V11.279A10.874,10.874,0,0,0,41.826,3.29Z" transform="translate(52.638)" fill="#fff"/>
      </g>
    </g>
  </g>
</svg>
